<?xml version="1.0" encoding="UTF-8" standalone="no"?>
<!DOCTYPE svg PUBLIC "-//W3C//DTD SVG 1.0//EN" "http://www.w3.org/TR/2001/REC-SVG-20010904/DTD/svg10.dtd">
<!-- Created with Inkscape (http://www.inkscape.org/) by Steadfast-->
<svg xmlns:svg="http://www.w3.org/2000/svg" xmlns="http://www.w3.org/2000/svg" version="1.0" width="900" height="431" id="svg2460">
  <defs id="defs2462"/>
  <g id="layer1">
    <g transform="matrix(0.689113,0,0,0.689113,221.60826,-23.379572)" id="g2455">
      <path d="M -307.07343,645.18054 C -307.07343,645.18054 163.21657,331.10552 163.21657,331.10552 C 163.21657,331.10552 314.39157,396.14052 314.39157,396.14052 C 314.39157,396.14052 140.89057,521.07152 140.89057,521.07152 C 140.89057,521.07152 352.37057,521.07152 352.37057,521.07152 C 352.37057,521.07152 294.58157,645.18054 294.58157,645.18054 C 294.58157,645.18054 -307.07343,645.18054 -307.07343,645.18054 z" id="path2386" style="fill:#008368"/>
      <path d="M 969.93057,645.18054 C 969.93057,645.18054 432.89157,645.18054 432.89157,645.18054 C 432.89157,645.18054 491.50357,521.07152 491.50357,521.07152 C 491.50357,521.07152 672.89157,521.07152 672.89157,521.07152 C 672.89157,521.07152 622.22857,415.66852 622.22857,415.66852 C 622.22857,415.66852 794.81257,372.68352 794.81257,372.68352 C 794.81257,372.68352 969.93057,645.18054 969.93057,645.18054 z" id="path2388" style="fill:#006ba6"/>
      <path d="M 604.06578,382.76971 L 532.06778,246.60551 C 532.06778,246.60551 347.96818,370.87791 347.96818,370.87791 C 347.96818,370.87791 197.89103,308.06421 197.89103,308.06421 C 197.89103,308.06421 586.56378,48.115252 586.56378,48.115252 C 586.56378,48.115252 773.09548,340.21221 773.09548,340.21221 C 773.09548,340.21221 604.06578,382.76971 604.06578,382.76971 z" id="path2392" style="fill:#fcb300"/>
    </g>
  </g>
</svg>